{"title":"Don Jon 2013 DVD-R (RLG)","uid":9413573,"size":4698479108,"categoryP":"video","categoryS":"movies_dvdr","magnet":"?xt=urn:btih:dd7fd6cfc9c223c6251af811474169b628ed208d&amp;dn=Don+Jon+2013+DVD-R+%28RLG%29&amp;tr=udp%3A%2F%2Ftracker.openbittorrent.com%3A80&amp;tr=udp%3A%2F%2Fopen.demonii.com%3A1337&amp;tr=udp%3A%2F%2Ftracker.coppersurfer.tk%3A6969&amp;tr=udp%3A%2F%2Fexodus.desync.com%3A6969","seeders":1,"leechers":0,"uploader":"RedLegsGreaves","files":-1,"time":1388370306,"description":" &lt;a href=&quot;http://www.imdb.com/title/tt2229499/&quot; rel=&quot;nofollow&quot; target=&quot;_NEW&quot;&gt;http://www.imdb.com/title/tt2229499/&lt;/a&gt;\nA New Jersey guy dedicated to his family, friends, and church, develops unrealistic expectations from watching porn and works to find happiness and intimacy with his potential true love.\n\nLanguages English.\nSubtitles English, Spanish.\n\nFor Newer Users.\nSimply Drag downloaded folder to your Media Player. This is a NTSC DVD.\nThis is ripped so you would have best quality, menu, bonus/special feature, language options etc.\nNote DVDs may not have have all* features.\n\nScreenshots &lt;a href=&quot;\nhttp://imageshack.com/a/img543/646/v5qa.jpg&quot; rel=&quot;nofollow&quot; target=&quot;_NEW&quot;&gt;\nhttp://imageshack.com/a/img543/646/v5qa.jpg&lt;/a&gt; &lt;a href=&quot;\nhttp://imageshack.com/a/img827/3357/zqj5.jpg&quot; rel=&quot;nofollow&quot; target=&quot;_NEW&quot;&gt;\nhttp://imageshack.com/a/img827/3357/zqj5.jpg&lt;/a&gt; &lt;a href=&quot;\nhttp://imageshack.com/a/img191/5628/a57i.jpg&quot; rel=&quot;nofollow&quot; target=&quot;_NEW&quot;&gt;\nhttp://imageshack.com/a/img191/5628/a57i.jpg&lt;/a&gt; &lt;a href=&quot;\nhttp://imageshack.com/a/img19/9121/ywiz.jpg&quot; rel=&quot;nofollow&quot; target=&quot;_NEW&quot;&gt;\nhttp://imageshack.com/a/img19/9121/ywiz.jpg&lt;/a&gt; &lt;a href=&quot;\nhttp://imageshack.com/a/img543/9554/2i5u.jpg&quot; rel=&quot;nofollow&quot; target=&quot;_NEW&quot;&gt;\nhttp://imageshack.com/a/img543/9554/2i5u.jpg&lt;/a&gt; &lt;a href=&quot;\nhttp://imageshack.com/a/img35/7039/tu5s.jpg&quot; rel=&quot;nofollow&quot; target=&quot;_NEW&quot;&gt;\nhttp://imageshack.com/a/img35/7039/tu5s.jpg&lt;/a&gt; &lt;a href=&quot;\nhttp://imageshack.com/a/img41/4113/rz6s.jpg&quot; rel=&quot;nofollow&quot; target=&quot;_NEW&quot;&gt;\nhttp://imageshack.com/a/img41/4113/rz6s.jpg&lt;/a&gt; &lt;a href=&quot;\nhttp://imageshack.com/a/img18/4722/vn93.jpg&quot; rel=&quot;nofollow&quot; target=&quot;_NEW&quot;&gt;\nhttp://imageshack.com/a/img18/4722/vn93.jpg&lt;/a&gt;\n\nVideo\nID : 224 (0xE0)\nFormat : MPEG Video\nFormat version : Version 2\nFormat profile : Main@Main\nFormat settings, BVOP : Yes\nFormat settings, Matrix : Custom\nFormat settings, GOP : Variable\nDuration : 24mn 21s\nBit rate mode : Variable\nBit rate : 5 313 Kbps\nMaximum bit rate : 9 800 Kbps\nWidth : 720 pixels\nHeight : 480 pixels\nDisplay aspect ratio : 16:9\nFrame rate : 23.976 fps\nStandard : NTSC\nColor space : YUV\nChroma subsampling : 4:2:0\nBit depth : 8 bits\nScan type : Progressive\nScan order : 2:3 Pulldown\nCompression mode : Lossy\nBits/(Pixel*Frame) : 0.641\nTime code of first frame : 00:50:06:06\nTime code source : Group of pictures header\nStream size : 926 MiB (90%)\n\nAudio\nID : 189 (0xBD)-128 (0x80)\nFormat : AC-3\nFormat/Info : Audio Coding 3\nMode extension : CM (complete main)\nFormat settings, Endianness : Big\nMuxing mode : DVD-Video\nDuration : 24mn 21s\nBit rate mode : Constant\nBit rate : 448 Kbps\nChannel count : 6 channels\nChannel positions : Front: L C R, Side: L R, LFE\nSampling rate : 48.0 KHz\nBit depth : 16 bits\nCompression mode : Lossy\nDelay relative to video : -329ms\nStream size : 78.0 MiB (8%)","torrent":{"xt":"urn:btih:dd7fd6cfc9c223c6251af811474169b628ed208d","amp;dn":"Don+Jon+2013+DVD-R+%28RLG%29","amp;tr":["udp%3A%2F%2Ftracker.openbittorrent.com%3A80","udp%3A%2F%2Fopen.demonii.com%3A1337","udp%3A%2F%2Ftracker.coppersurfer.tk%3A6969","udp%3A%2F%2Fexodus.desync.com%3A6969"],"infoHash":"dd7fd6cfc9c223c6251af811474169b628ed208d","infoHashBuffer":{"type":"Buffer","data":[221,127,214,207,201,194,35,198,37,26,248,17,71,65,105,182,40,237,32,141]},"announce":[],"urlList":[]}}